<svg width="18" height="18" viewBox="0 0 18 18" fill="none" xmlns="http://www.w3.org/2000/svg">
<path fill-rule="evenodd" clip-rule="evenodd" d="M5.53688 0.650436C6.43263 0.60925 6.71823 0.600098 8.99998 0.600098C11.2817 0.600098 11.5673 0.610013 12.4623 0.650436C13.3573 0.690859 13.9682 0.833483 14.5027 1.04017C15.0625 1.25144 15.5703 1.58169 15.9903 2.0088C16.4179 2.42752 16.7478 2.93395 16.9586 3.49377C17.1663 4.02766 17.3083 4.63782 17.3496 5.53017C17.3908 6.42634 17.4 6.71159 17.4 8.98977C17.4 11.2687 17.39 11.554 17.3496 12.4486C17.3091 13.341 17.1663 13.9511 16.9586 14.485C16.7478 15.0449 16.4174 15.5522 15.9903 15.9715C15.5703 16.3986 15.0625 16.7281 14.5027 16.9386C13.9682 17.1461 13.3573 17.2879 12.4638 17.3291C11.5673 17.3703 11.2817 17.3794 8.99998 17.3794C6.71823 17.3794 6.43263 17.3695 5.53688 17.3291C4.64343 17.2887 4.03252 17.1461 3.49798 16.9386C2.93741 16.7281 2.42951 16.398 2.00965 15.9715C1.5823 15.5525 1.2516 15.0455 1.04059 14.4858C0.833648 13.9519 0.691612 13.3417 0.650376 12.4494C0.609139 11.5532 0.599976 11.2679 0.599976 8.98977C0.599976 6.71083 0.609903 6.42558 0.650376 5.5317C0.690848 4.63782 0.833648 4.02766 1.04059 3.49377C1.25191 2.93401 1.58287 2.427 2.01041 2.00804C2.42968 1.58131 2.93706 1.25102 3.49721 1.04017C4.03176 0.833483 4.64267 0.691621 5.53612 0.650436H5.53688ZM12.3943 2.16058C11.5085 2.12015 11.2428 2.11176 8.99998 2.11176C6.75718 2.11176 6.49143 2.12015 5.60561 2.16058C4.78623 2.19795 4.34179 2.33447 4.0455 2.44964C3.65376 2.60218 3.3735 2.78294 3.0795 3.07658C2.80081 3.34737 2.58633 3.67703 2.45179 4.04139C2.33648 4.33732 2.19979 4.78121 2.16238 5.59958C2.1219 6.48431 2.1135 6.74973 2.1135 8.98977C2.1135 11.2298 2.1219 11.4952 2.16238 12.38C2.19979 13.1983 2.33648 13.6422 2.45179 13.9382C2.58619 14.302 2.80078 14.6322 3.0795 14.903C3.35059 15.1813 3.68125 15.3957 4.0455 15.5299C4.34179 15.6451 4.78623 15.7816 5.60561 15.819C6.49143 15.8594 6.75641 15.8678 8.99998 15.8678C11.2435 15.8678 11.5085 15.8594 12.3943 15.819C13.2137 15.7816 13.6582 15.6451 13.9544 15.5299C14.3462 15.3774 14.6264 15.1966 14.9204 14.903C15.1992 14.6322 15.4138 14.302 15.5482 13.9382C15.6635 13.6422 15.8002 13.1983 15.8376 12.38C15.878 11.4952 15.8864 11.2298 15.8864 8.98977C15.8864 6.74973 15.878 6.48431 15.8376 5.59958C15.8002 4.78121 15.6635 4.33732 15.5482 4.04139C15.3954 3.65013 15.2144 3.37022 14.9204 3.07658C14.6493 2.79825 14.3192 2.58403 13.9544 2.44964C13.6582 2.33447 13.2137 2.19795 12.3943 2.16058ZM7.92707 11.5761C8.52626 11.8252 9.19346 11.8588 9.81472 11.6712C10.436 11.4836 10.9727 11.0864 11.3334 10.5474C11.694 10.0084 11.856 9.36111 11.7919 8.71604C11.7277 8.07098 11.4413 7.46817 10.9816 7.01057C10.6886 6.71806 10.3342 6.49408 9.94408 6.35476C9.55396 6.21544 9.13776 6.16425 8.72544 6.20487C8.31313 6.24549 7.91496 6.3769 7.55961 6.58966C7.20425 6.80242 6.90054 7.09122 6.67035 7.43528C6.44016 7.77934 6.28921 8.17009 6.22837 8.57941C6.16753 8.98873 6.19831 9.40643 6.3185 9.80244C6.43868 10.1984 6.64529 10.5629 6.92343 10.8696C7.20158 11.1763 7.54435 11.4176 7.92707 11.5761ZM5.94696 5.94051C6.34789 5.54007 6.82386 5.22243 7.34769 5.00571C7.87153 4.789 8.43298 4.67746 8.99998 4.67746C9.56697 4.67746 10.1284 4.789 10.6523 5.00571C11.1761 5.22243 11.6521 5.54007 12.053 5.94051C12.4539 6.34094 12.772 6.81633 12.9889 7.33952C13.2059 7.86271 13.3176 8.42347 13.3176 8.98977C13.3176 9.55607 13.2059 10.1168 12.9889 10.64C12.772 11.1632 12.4539 11.6386 12.053 12.039C11.2433 12.8478 10.1451 13.3021 8.99998 13.3021C7.85487 13.3021 6.75667 12.8478 5.94696 12.039C5.13725 11.2303 4.68236 10.1335 4.68236 8.98977C4.68236 7.84607 5.13725 6.74922 5.94696 5.94051ZM14.2752 5.31967C14.3745 5.22606 14.4541 5.1135 14.5091 4.98864C14.5641 4.86378 14.5935 4.72917 14.5955 4.59277C14.5974 4.45637 14.572 4.32095 14.5207 4.19455C14.4693 4.06814 14.3931 3.95331 14.2965 3.85685C14.1999 3.76039 14.085 3.68426 13.9584 3.63298C13.8318 3.58169 13.6963 3.55629 13.5597 3.55828C13.4231 3.56027 13.2884 3.58961 13.1633 3.64455C13.0383 3.6995 12.9256 3.77894 12.8319 3.87817C12.6496 4.07116 12.5498 4.32749 12.5537 4.59277C12.5576 4.85804 12.6648 5.11136 12.8526 5.29896C13.0405 5.48655 13.2941 5.59365 13.5597 5.59752C13.8253 5.60139 14.082 5.50172 14.2752 5.31967Z" fill="black"/>
</svg>
