<svg width="17" height="14" viewBox="0 0 17 14" fill="none" xmlns="http://www.w3.org/2000/svg">
<path d="M15.3356 3.68548C15.3464 3.83002 15.3464 3.97373 15.3464 4.11744C15.3464 8.51555 12.0053 13.5835 5.89938 13.5835C4.01823 13.5835 2.27062 13.0376 0.799988 12.0894C1.06708 12.1199 1.32427 12.1307 1.60207 12.1307C3.0966 12.1343 4.54881 11.6336 5.72462 10.7092C5.03169 10.6967 4.35998 10.4676 3.80327 10.0541C3.24656 9.64049 2.83264 9.06306 2.61931 8.4024C2.82458 8.43296 3.03066 8.45361 3.24664 8.45361C3.54423 8.45361 3.84346 8.41231 4.12127 8.34045C3.36927 8.18833 2.69307 7.77993 2.20765 7.18471C1.72223 6.58949 1.45756 5.84418 1.45864 5.07553V5.03423C1.90131 5.28119 2.41488 5.43564 2.95894 5.45628C2.50315 5.15282 2.12942 4.74104 1.87109 4.25768C1.61276 3.77431 1.47786 3.2344 1.47842 2.68609C1.47842 2.06829 1.64247 1.5017 1.93016 1.00779C2.76451 2.0361 3.80514 2.87735 4.98463 3.47706C6.16413 4.07677 7.4562 4.42156 8.77716 4.48911C8.72605 4.24133 8.69473 3.98447 8.69473 3.72677C8.69451 3.28982 8.78025 2.85711 8.94704 2.45338C9.11383 2.04965 9.35841 1.68281 9.66678 1.37384C9.97516 1.06486 10.3413 0.819818 10.7442 0.652704C11.1472 0.48559 11.5791 0.399686 12.0152 0.399903C12.9714 0.399903 13.8345 0.801308 14.4412 1.45049C15.1846 1.30646 15.8975 1.03457 16.5482 0.646857C16.3005 1.41565 15.7814 2.06755 15.0883 2.48044C15.7476 2.40509 16.392 2.23138 17 1.96505C16.5459 2.62836 15.9832 3.21002 15.3356 3.68548Z" fill="black"/>
</svg>
